<?xml version="1.0" encoding="UTF-8"?>
<svg version="1.1" xmlns="http://www.w3.org/2000/svg" width="3168" height="792">
<path d="M0 0 C1045.44 0 2090.88 0 3168 0 C3168 261.36 3168 522.72 3168 792 C2122.56 792 1077.12 792 0 792 C0 530.64 0 269.28 0 0 Z " fill="#FDFDFD" transform="translate(0,0)"/>
<path d="M0 0 C3.70857769 2.57618756 6.24454323 5.41203198 8.984375 8.984375 C11.28427683 11.82457216 11.28427683 11.82457216 14.6328125 12.83203125 C16.97729815 12.53177256 19.23786921 12.04949001 21.546875 11.546875 C30.34383962 10.70181226 36.45148303 12.62159502 43.609375 17.734375 C46.31499634 21.66188985 46.0005623 24.91926456 45.546875 29.546875 C44.08203125 28.27734375 42.6171875 27.0078125 41.15234375 25.73828125 C38.06595226 23.44789341 35.06985383 23.35967577 31.359375 23.296875 C30.00779297 23.25820313 30.00779297 23.25820313 28.62890625 23.21875 C24.56003803 23.65193749 21.3328945 25.00156092 17.546875 26.546875 C17.43472656 28.30837891 17.43472656 28.30837891 17.3203125 30.10546875 C15.43352537 54.86177458 4.60608064 76.06997694 -10.453125 95.546875 C-11.13503906 96.45179688 -11.81695313 97.35671875 -12.51953125 98.2890625 C-31.03024305 121.96310378 -54.81512106 140.21183504 -83.453125 149.546875 C-84.25878906 149.81371094 -85.06445312 150.08054687 -85.89453125 150.35546875 C-90.73095633 151.68617394 -95.64869409 151.77023338 -100.640625 151.859375 C-101.31867187 151.87726074 -101.99671875 151.89514648 -102.6953125 151.91357422 C-108.81894603 151.90304734 -112.67380161 150.12400255 -117.203125 146.109375 C-121.65319231 141.04124279 -122.01321485 136.95335941 -121.88671875 130.30859375 C-119.92991066 113.33196141 -109.07316437 98.41377408 -97.453125 86.546875 C-96.66929443 85.73452393 -96.66929443 85.73452393 -95.86962891 84.90576172 C-89.19006327 77.99343202 -82.55160783 71.46644155 -74.7578125 65.8046875 C-69.65644749 60.80707906 -67.39842546 53.20958444 -64.78125 46.671875 C-64.45396912 45.86194092 -64.12668823 45.05200684 -63.78948975 44.2175293 C-62.75760909 41.66187874 -61.73029327 39.10442268 -60.703125 36.546875 C-59.9990005 34.80065921 -59.29457619 33.05456428 -58.58984375 31.30859375 C-56.87413785 27.05607571 -55.16251982 22.80193362 -53.453125 18.546875 C-63.76930597 25.449704 -63.76930597 25.449704 -73.203125 33.484375 C-73.73768311 33.99178223 -74.27224121 34.49918945 -74.82299805 35.02197266 C-76.38077224 36.51636946 -77.92006971 38.02717296 -79.453125 39.546875 C-80.28972656 40.37058594 -81.12632812 41.19429688 -81.98828125 42.04296875 C-88.38636957 48.72639206 -96.64886595 58.327525 -96.66796875 67.9765625 C-96.59707031 69.15476562 -96.52617187 70.33296875 -96.453125 71.546875 C-94.473125 72.206875 -92.493125 72.866875 -90.453125 73.546875 C-92.8472411 75.9409911 -93.49098811 75.84286423 -96.765625 75.859375 C-100.81681996 75.75549821 -103.25682507 75.1952378 -106.453125 72.546875 C-111.19483255 67.14659695 -111.87816993 63.86848792 -111.78515625 56.765625 C-110.17672801 41.17333246 -93.84488582 26.51062492 -82.32421875 16.88671875 C-58.5572724 -2.29838261 -28.89616594 -17.11683715 0 0 Z " fill="#067AD0" transform="translate(2593.453125,469.453125)"/>
<path d="M0 0 C1.28003906 0.40025391 1.28003906 0.40025391 2.5859375 0.80859375 C13.89895474 4.72463818 21.85019046 12.46369977 27.02734375 23.11328125 C30.80707486 32.64099054 29.80974639 42.80806685 26.25 52.2265625 C19.48276999 67.24135408 6.72249138 77.42536922 -8.36328125 83.3125 C-49.89944476 96.84284308 -90.78223536 77.61771589 -128.59751892 61.25813293 C-137.04825848 57.4059213 -137.04825848 57.4059213 -146 58 C-148.53710468 59.19196575 -150.97617574 60.42136341 -153.4375 61.75 C-169.68227101 70.15700246 -191.40834301 78.09611328 -209.765625 73.2734375 C-214.33244009 71.41344327 -218.08051265 69.04961148 -221 65 C-221.66548028 60.93317608 -221.30930228 58.68890053 -219.625 54.9375 C-210.23167272 44.42591947 -194.57133369 40.32134689 -181 39 C-169.51372297 38.40438463 -157.93514198 38.61582049 -146.55566406 40.37866211 C-138.17204457 41.56599738 -131.84404459 35.84457147 -125.2421875 31.45410156 C-92.92771018 10.49754375 -39.19683233 -14.01620475 0 0 Z " fill="#047BD1" transform="translate(3000,193)"/>
<path d="M0 0 C4.2591421 0.92554434 8.17598669 2.87428473 11.0625 6.1875 C12.02734375 8.58203125 12.02734375 8.58203125 12.0625 11.1875 C10.2890625 13.37109375 10.2890625 13.37109375 7.6875 15.625 C1.54061683 21.43753388 -2.72533784 27.90570844 -6.9375 35.1875 C-7.49219971 36.13641113 -7.49219971 36.13641113 -8.05810547 37.10449219 C-17.23909293 53.01289302 -24.14169223 70.46492105 -28.9375 88.1875 C-29.36482422 89.71890625 -29.36482422 89.71890625 -29.80078125 91.28125 C-33.22456907 104.13262418 -36.2248169 120.84359342 -29.9375 133.1875 C-27.98533565 135.13966435 -26.40550047 136.03576645 -23.9375 137.1875 C-27.62952478 139.64884985 -29.26583348 139.51040443 -33.5234375 138.9140625 C-38.73001279 137.34703499 -42.39633755 133.58387398 -45.2890625 129.0859375 C-50.77103759 118.55581269 -49.41700073 106.65363065 -47.9375 95.1875 C-48.35 95.90035156 -48.7625 96.61320313 -49.1875 97.34765625 C-57.81759213 111.66050993 -57.81759213 111.66050993 -64.94140625 113.78515625 C-69.66701242 114.14581895 -73.38342761 112.45999631 -77.23828125 109.83203125 C-80.14325327 107.02055258 -80.8916442 104.04409327 -81.9375 100.1875 C-82.68773438 100.90035156 -83.43796875 101.61320313 -84.2109375 102.34765625 C-101.33559347 118.45620426 -101.33559347 118.45620426 -108.0625 118.875 C-115.43086571 117.56770931 -121.98373659 113.87763365 -126.9375 108.1875 C-131.18689756 99.95873348 -129.63850449 89.3285007 -127 80.8125 C-121.17852948 65.17956231 -111.53218031 44.17839115 -95.9375 36.1875 C-91.28314466 34.75212399 -88.10933553 35.62617632 -83.7734375 37.703125 C-76.01484807 42.11015193 -76.01484807 42.11015193 -72.9375 45.1875 C-71.50596422 55.82176577 -76.76391405 66.66322789 -83.03125 74.9921875 C-91.64693094 84.91434465 -91.64693094 84.91434465 -96.9609375 85.35546875 C-98.12496094 85.36513672 -98.12496094 85.36513672 -99.3125 85.375 C-100.46878906 85.39626953 -100.46878906 85.39626953 -101.6484375 85.41796875 C-104.15584888 85.16551607 -105.77011902 84.43943467 -107.9375 83.1875 C-109.97811541 90.36609349 -111.31119729 96.71355426 -110.9375 104.1875 C-105.40478024 105.03868765 -102.47344135 102.98245529 -98.16015625 99.87890625 C-97.05994141 99.04166016 -97.05994141 99.04166016 -95.9375 98.1875 C-95.33808594 97.74277344 -94.73867187 97.29804687 -94.12109375 96.83984375 C-88.53935398 92.39776314 -84.31937091 86.76955247 -79.9375 81.1875 C-79.40125 80.55199219 -78.865 79.91648437 -78.3125 79.26171875 C-75.3128636 75.58553393 -73.23194454 71.80785415 -71.23193359 67.53271484 C-66.52606943 57.49150991 -60.29987871 47.23752 -49.9375 42.1875 C-42.96035058 40.924101 -37.90204407 42.65295537 -31.9375 46.1875 C-31.72351562 45.42824219 -31.50953125 44.66898438 -31.2890625 43.88671875 C-26.45499234 30.65589668 -19.04828025 16.96790287 -9.9375 6.1875 C-9.17566406 5.19169922 -9.17566406 5.19169922 -8.3984375 4.17578125 C-5.66423589 0.92251998 -4.2896625 0.20426964 0 0 Z " fill="#891EAD" transform="translate(3011.9375,474.8125)"/>
<path d="M0 0 C1.7734375 1.79296875 1.7734375 1.79296875 3.375 4.1875 C7.89782906 10.39911073 12.70247557 13.33562854 19.4375 16.875 C26.41225561 20.6166158 33.52400239 25.10775762 36 33 C37.48546772 44.62909018 33.22554816 55.58112136 29.1875 66.25 C26.08325753 74.49276977 23.57547034 82.75158165 21.5 91.3125 C21.11751099 92.8588916 21.11751099 92.8588916 20.72729492 94.43652344 C19.02177433 101.76110925 17.95717603 108.65424292 20 116 C21.65 116.33 23.3 116.66 25 117 C23.15690406 119.6020178 22.06062846 119.98908688 18.875 120.5625 C12.7611562 119.67500654 8.51452579 116.67788246 4.31640625 112.20703125 C1.13395774 107.83454533 0.18359834 103.7792596 0.45703125 98.4140625 C2.48965355 85.6334014 7.45139723 73.30757342 12.1953125 61.33056641 C16.01757678 51.65018322 19.3911891 42.56678462 18 32 C15.63633516 27.54540088 12.56365644 25.97066983 8 24 C8.0928125 25.60875 8.0928125 25.60875 8.1875 27.25 C8.06315336 50.95875967 -8.644906 80.79606214 -25 97 C-29.29806937 101.00196021 -33.46830138 100.66864971 -39.12890625 100.5390625 C-49.34985524 99.11576183 -59.34788266 92.85625337 -66 85 C-70.8832655 76.92425797 -69.72274563 67.60788792 -68 58.625 C-65.90266385 50.51266205 -62.05602354 43.28043713 -58 36 C-57.41863281 34.95070313 -56.83726562 33.90140625 -56.23828125 32.8203125 C-52.00365888 25.69351215 -46.0878186 17.92910187 -38 15 C-32.00354168 14.33056166 -28.5611254 15.83333638 -23.625 18.875 C-22.99722656 19.23980469 -22.36945312 19.60460937 -21.72265625 19.98046875 C-17.15255376 22.69489247 -17.15255376 22.69489247 -16 25 C-14.85985513 35.7173618 -20.71214851 45.72165464 -27 54 C-31.01148065 58.27663182 -35.16292377 61.74827691 -41.203125 62.14453125 C-44.79458169 62.20825064 -47.56457408 62.14514197 -51 61 C-51.0816082 63.37570543 -51.14077222 65.74855841 -51.1875 68.125 C-51.21263672 68.79015625 -51.23777344 69.4553125 -51.26367188 70.140625 C-51.34652117 75.77437707 -50.03354405 79.74857623 -46.25 83.9375 C-42.63388255 85.64511102 -40.82103316 85.19015787 -37 84 C-28.69214672 78.68418895 -23.82527598 70.33067185 -19 62 C-18.63455078 61.37609375 -18.26910156 60.7521875 -17.89257812 60.109375 C-11.39856264 48.90401495 -4.00957606 35.3418914 -7 22 C-8.6445051 19.66895393 -10.45038442 17.79824274 -12.4765625 15.796875 C-14 14 -14 14 -14.4375 10.4375 C-11.97464729 4.5480696 -6.92067917 -1.28242617 0 0 Z " fill="#623AB8" transform="translate(2848,493)"/>
<path d="M0 0 C5.54372152 1.78526625 9.60137454 5.10137454 13.6875 9.1875 C13.6875 10.1775 13.6875 11.1675 13.6875 12.1875 C12.04521012 13.55074594 10.37354239 14.87875381 8.6875 16.1875 C-15.0529045 43.11989166 -34.15695561 86.50993015 -32.5703125 122.73828125 C-32.02868052 130.07887598 -32.02868052 130.07887598 -28.375 136.125 C-27.694375 136.475625 -27.01375 136.82625 -26.3125 137.1875 C-24.8275 138.1775 -24.8275 138.1775 -23.3125 139.1875 C-27.10020683 141.08135342 -31.19644553 140.79902809 -35.3125 140.1875 C-42.5786008 136.9885877 -47.52458364 131.69179455 -50.42578125 124.3828125 C-53.04189167 114.95559521 -51.24481126 104.60751738 -49.3125 95.1875 C-49.88355469 95.86554688 -50.45460938 96.54359375 -51.04296875 97.2421875 C-58.26305854 105.52979455 -69.21125693 117.91671677 -80.5 119.6875 C-88.10994121 118.68947492 -95.28100523 114.86175761 -100.0859375 108.79296875 C-104.19937286 100.05519363 -101.58684582 88.9805241 -98.64648438 80.19824219 C-93.00898837 64.67613392 -83.7900133 44.92625665 -68.3125 37.1875 C-59.82704436 36.27834404 -53.85913612 39.49205655 -47.1875 44.5625 C-45.31311485 47.18663921 -44.57435362 48.74488367 -44.828125 51.98046875 C-47.47970151 64.06224881 -53.6131591 76.30391249 -63.3125 84.1875 C-67.94459768 86.91924991 -73.37077136 86.85770252 -78.55859375 85.67578125 C-79.13738281 85.51464844 -79.71617187 85.35351562 -80.3125 85.1875 C-82.21670731 91.98824041 -83.72100553 98.10673749 -83.3125 105.1875 C-76.11334087 105.64393084 -72.68819519 102.64705559 -67.3125 98.1875 C-56.58935697 88.61023373 -48.31106714 77.73720335 -41.3125 65.1875 C-40.6525 65.1875 -39.9925 65.1875 -39.3125 65.1875 C-39.13726807 64.63497559 -38.96203613 64.08245117 -38.78149414 63.51318359 C-34.1232752 49.14386576 -17.71012309 1.0024598 0 0 Z " fill="#1F68CA" transform="translate(2707.3125,473.8125)"/>
<path d="M0 0 C5.41605091 -0.55265826 8.28880653 0.21572605 12.4296875 3.51171875 C17.48066167 8.29883606 19.67133667 13.82292119 20.375 20.625 C19.98398043 32.13835394 13.29158214 43.05787031 8 53 C7.6695166 53.6276123 7.3390332 54.25522461 6.99853516 54.90185547 C-7.03945287 81.34648429 -7.03945287 81.34648429 -18 85 C-24.5945313 85.81992396 -29.01516521 85.06602313 -34.50390625 81.2890625 C-36 80 -36 80 -37 78 C-37.08342159 76.55151418 -37.10732861 75.09929131 -37.09765625 73.6484375 C-37.09443359 72.79765625 -37.09121094 71.946875 -37.08789062 71.0703125 C-37.07532227 69.73613281 -37.07532227 69.73613281 -37.0625 68.375 C-37.05798828 67.4778125 -37.05347656 66.580625 -37.04882812 65.65625 C-37.03702591 63.43743352 -37.02056155 61.21874982 -37 59 C-37.70962891 59.94359375 -37.70962891 59.94359375 -38.43359375 60.90625 C-50.0486869 75.94021072 -50.0486869 75.94021072 -56.359375 77.6328125 C-61.63087889 77.89815666 -64.91195756 76.40670204 -69 73 C-69.61875 72.566875 -70.2375 72.13375 -70.875 71.6875 C-73.24496107 68.13255839 -72.05652272 63.34880467 -71.40625 59.3359375 C-71.11716708 58.01271775 -70.81435595 56.69244441 -70.5 55.375 C-70.32911865 54.65642822 -70.1582373 53.93785645 -69.98217773 53.19750977 C-68.40720613 46.96327479 -66.32521439 40.95261997 -64.0625 34.9375 C-63.73894531 34.0697998 -63.41539062 33.20209961 -63.08203125 32.30810547 C-58.72816756 21.11461565 -58.72816756 21.11461565 -55 17 C-51.38781549 15.91082143 -48.52358844 16.23981634 -45.15234375 17.921875 C-43.5 19 -43.5 19 -41 21 C-41.44297213 27.59034047 -43.97878558 32.59891488 -46.9375 38.4375 C-51.0234664 46.53430189 -54.46500742 53.69985152 -54 63 C-42.22042395 57.86265185 -33.8682755 41.06156857 -29.26611328 29.62744141 C-28.54067289 27.73130944 -27.84746369 25.82293751 -27.15625 23.9140625 C-26 21 -26 21 -24 19 C-19.80054268 18.82975173 -16.03098501 19.37135061 -12.4375 21.5625 C-11.963125 22.036875 -11.48875 22.51125 -11 23 C-11.67576892 29.53551862 -13.53824605 35.60088612 -15.4375 41.875 C-19.82907152 55.68694325 -19.82907152 55.68694325 -21 70 C-7.2324796 56.14394249 4.71329142 33.76451079 5.375 14.125 C5.20778217 8.32254127 3.17407307 4.7611096 0 0 Z " fill="#4251C1" transform="translate(2756,511)"/>
<path d="M0 0 C-5.26709198 27.98142614 -23.76044509 51.8837575 -43 72 C-43.88558594 72.9384375 -44.77117188 73.876875 -45.68359375 74.84375 C-58.98820808 88.59249514 -78.02380017 104.62948791 -98.0625 105.4375 C-102 105 -102 105 -103.74609375 103.97265625 C-105.77015553 100.7883846 -105.53343122 97.60147389 -105 94 C-104.11131464 91.23177252 -102.87320954 88.74518562 -101.5 86.1875 C-101.1397876 85.49462891 -100.7795752 84.80175781 -100.40844727 84.08789062 C-97.1489787 77.97275639 -93.35889466 72.38965532 -89 67 C-88.36707031 66.21496094 -87.73414062 65.42992187 -87.08203125 64.62109375 C-84.25013072 61.24575815 -82.09145666 58.78778867 -78 57 C-78.4375 58.60416667 -78.875 60.20833333 -79.3125 61.8125 C-79.58191406 62.81152344 -79.85132812 63.81054688 -80.12890625 64.83984375 C-80.69706356 66.90100638 -81.28725106 68.95626002 -81.90234375 71.00390625 C-82.18207031 71.95136719 -82.46179687 72.89882813 -82.75 73.875 C-83.01296875 74.73867188 -83.2759375 75.60234375 -83.546875 76.4921875 C-84.06093001 79.33721608 -83.86253508 81.24947147 -83 84 C-80.47524538 85.26237731 -78.68799534 85.09856404 -75.875 85.0625 C-74.96492188 85.05347656 -74.05484375 85.04445313 -73.1171875 85.03515625 C-72.41851563 85.02355469 -71.71984375 85.01195312 -71 85 C-69.21701676 79.85529294 -67.61080962 74.70394599 -66.16796875 69.453125 C-65.84376953 68.2775 -65.51957031 67.101875 -65.18554688 65.890625 C-64.52498276 63.48105258 -63.8712302 61.06960155 -63.22460938 58.65625 C-60.02359866 47.13512696 -56.63350216 35.69649852 -47 28 C-46.39220703 27.51337891 -45.78441406 27.02675781 -45.15820312 26.52539062 C-43.22264093 25.04525483 -41.25170072 23.6392507 -39.25 22.25 C-38.16332031 21.48901001 -38.16332031 21.48901001 -37.0546875 20.71264648 C-29.38716679 15.43386596 -21.37145544 10.77619061 -13.2421875 6.25048828 C-11.65888059 5.36746367 -10.0812589 4.47420792 -8.5078125 3.57373047 C-7.70085938 3.11498535 -6.89390625 2.65624023 -6.0625 2.18359375 C-4.96615234 1.55602173 -4.96615234 1.55602173 -3.84765625 0.91577148 C-2 0 -2 0 0 0 Z " fill="#FAFCFE" transform="translate(2591,505)"/>
<path d="M0 0 C1.1344112 1.00864499 2.24182863 2.04893482 3.3125 3.125 C3.83457031 3.58777344 4.35664063 4.05054688 4.89453125 4.52734375 C7.63285325 7.25057858 8.72766781 9.74601603 9.0625 13.5 C8.75696456 18.27600134 6.80737519 20.98575284 3.50390625 24.3359375 C-10.43882707 35.71877504 -29.73392168 34.45414214 -46.6875 33.125 C-58.06470635 31.89187353 -69.33277183 29.69454718 -80.56188965 27.52581787 C-82.78586447 27.1064518 -85.01337012 26.71382752 -87.24316406 26.32666016 C-87.97971222 26.19632889 -88.71626038 26.06599762 -89.47512817 25.93171692 C-90.88055426 25.68359122 -92.28700522 25.44118104 -93.69454956 25.20536804 C-98.46269219 24.34980781 -98.46269219 24.34980781 -100.6875 22.125 C-73.82179392 3.87156282 -32.2585645 -22.78485968 0 0 Z " fill="#FCFCFE" transform="translate(2975.6875,213.875)"/>
<path d="M0 0 C0.85335937 0.26683594 1.70671875 0.53367188 2.5859375 0.80859375 C11.89439982 4.03075378 19.95036122 10.2302296 25.05859375 18.71484375 C26.73159169 22.77585534 26.43134875 25.90435853 25 30 C20.66592213 39.67835434 12.17238986 44.42126314 2.6875 48.3125 C1.12889234 48.88569687 -0.43313315 49.44978116 -2 50 C-2.94875 50.37125 -3.8975 50.7425 -4.875 51.125 C-18.33838196 54.89474695 -32.310323 55.15256655 -46.1875 55.0625 C-47.53450352 55.05746963 -48.88150889 55.05290947 -50.22851562 55.04882812 C-53.48572537 55.03715354 -56.74283778 55.02077883 -60 55 C-60 54.67 -60 54.34 -60 54 C-58.16888672 53.96132812 -58.16888672 53.96132812 -56.30078125 53.921875 C-43.74575218 53.53708081 -29.98274412 53.09209678 -20.57421875 43.5546875 C-16.06255399 38.4965394 -15.64152596 34.15779336 -15.71875 27.59375 C-16.41505371 21.17228242 -20.35437899 15.36119523 -25 11 C-30.26413128 6.82211803 -35.7074251 4.0844245 -42.03125 1.859375 C-44 1 -44 1 -45 -1 C-30.98788348 -4.7544427 -13.69338007 -4.89654922 0 0 Z " fill="#03A0CC" transform="translate(3000,193)"/>
<path d="M0 0 C-3.1390131 3.55962527 -6.54434462 5.51727101 -10.8125 7.4375 C-11.47121094 7.7375293 -12.12992188 8.03755859 -12.80859375 8.34667969 C-28.79028624 15.46400186 -49.20974821 22.88557462 -66.765625 18.2734375 C-71.32706629 16.41563194 -75.05317074 14.02733333 -78 10 C-78.125 7.4375 -78.125 7.4375 -77 5 C-70.2145599 -1.59157038 -61.97168093 -3.17490376 -53 -5 C-52.02675781 -5.20882812 -51.05351562 -5.41765625 -50.05078125 -5.6328125 C-32.17942369 -9.09493088 -16.91320591 -6.04043068 0 0 Z " fill="#6D32B5" transform="translate(2857,248)"/>
<path d="M0 0 C1.30807617 -0.02320313 1.30807617 -0.02320313 2.64257812 -0.046875 C9.12713211 -0.00760442 12.87966255 1.46395236 17.58203125 6.1328125 C22.18471817 12.01316837 22.80978118 16.07057067 21.9375 23.5 C19.97475953 28.82492371 17.03890099 31.97031135 12.0090332 34.69067383 C8.10849112 36.21457448 4.2050484 36.17705866 0.0625 36.125 C-1.26769165 36.11460693 -1.26769165 36.11460693 -2.62475586 36.10400391 C-8.53607857 35.90646871 -12.96397858 35.19266382 -17.5625 31.1875 C-22.18886775 25.98283628 -22.66657681 21.21423846 -22.47265625 14.41015625 C-21.86626258 10.10764882 -20.37768399 7.29786956 -17.0625 4.5 C-11.31826931 0.44524892 -6.94409177 -0.12372547 0 0 Z " fill="#AF07A4" transform="translate(2861.0625,301.5)"/>
<path d="M0 0 C7.486875 -0.12375 7.486875 -0.12375 15.125 -0.25 C17.47069092 -0.30462402 17.47069092 -0.30462402 19.86376953 -0.36035156 C21.10755371 -0.3703418 22.35133789 -0.38033203 23.6328125 -0.390625 C24.90012207 -0.41157227 26.16743164 -0.43251953 27.47314453 -0.45410156 C31.65357099 0.08415077 33.75089643 1.36237331 37 4 C39.32579101 7.48868651 39.41865457 8.89718519 39 13 C37.5 15.375 37.5 15.375 36 17 C36.495 17.515625 36.99 18.03125 37.5 18.5625 C39.56178923 21.9129075 39.40800889 24.12391554 39 28 C37.77832955 30.7487585 36.84335596 32.42434832 34.35253906 34.12451172 C31.04505093 35.35538059 28.13272399 35.22327559 24.609375 35.1953125 C23.31999023 35.19031738 22.03060547 35.18532227 20.70214844 35.18017578 C18.25083496 35.15286377 18.25083496 35.15286377 15.75 35.125 C10.5525 35.08375 5.355 35.0425 0 35 C0 23.45 0 11.9 0 0 Z " fill="#B00AA5" transform="translate(2888,302)"/>
<path d="M0 0 C0.66 0.66 1.32 1.32 2 2 C4.77691771 2.14104979 7.49644239 1.99476259 10.2734375 1.875 C13.1166975 2.00535003 14.54865779 2.65068663 17 4 C19.30797001 3.66059264 20.91510461 3.04244769 23 2 C32.92400011 0.96005987 32.92400011 0.96005987 37.08984375 3.046875 C39.19923742 4.80040519 40.7701996 6.5403992 42 9 C42.15344209 10.88472859 42.24959571 12.77427874 42.31640625 14.6640625 C42.35830078 15.78554688 42.40019531 16.90703125 42.44335938 18.0625 C42.48267578 19.238125 42.52199219 20.41375 42.5625 21.625 C42.60568359 22.80835938 42.64886719 23.99171875 42.69335938 25.2109375 C42.79967426 28.14050328 42.90170642 31.07015588 43 34 C44.32 34.66 45.64 35.32 47 36 C47 37.32 47 38.64 47 40 C45.25215533 40.13560864 43.50126074 40.23227209 41.75 40.3125 C40.77546875 40.37050781 39.8009375 40.42851562 38.796875 40.48828125 C36 40 36 40 33.86328125 37.86914062 C31.67463169 34.49898737 31.46620548 32.59233931 31.390625 28.60546875 C31.35839844 27.40341797 31.32617188 26.20136719 31.29296875 24.96289062 C31.27878906 23.71701172 31.26460937 22.47113281 31.25 21.1875 C31.22035156 19.92228516 31.19070312 18.65707031 31.16015625 17.35351562 C31.08956223 14.23561324 31.0368109 11.11845425 31 8 C25.91696314 7.88679144 25.91696314 7.88679144 21 9 C21.495 9.99 21.495 9.99 22 11 C22.084915 12.8863912 22.107193 14.77578515 22.09765625 16.6640625 C22.09443359 17.78554688 22.09121094 18.90703125 22.08789062 20.0625 C22.07532227 21.8259375 22.07532227 21.8259375 22.0625 23.625 C22.05798828 24.80835938 22.05347656 25.99171875 22.04882812 27.2109375 C22.03701467 30.14067507 22.02054258 33.07031272 22 36 C23.32 36 24.64 36 26 36 C26 37.32 26 38.64 26 40 C20.06 40 14.12 40 8 40 C8 38.68 8 37.36 8 36 C9.485 35.505 9.485 35.505 11 35 C11.08696177 31.06263877 11.14037835 27.12552372 11.1875 23.1875 C11.21263672 22.06794922 11.23777344 20.94839844 11.26367188 19.79492188 C11.27333984 18.72177734 11.28300781 17.64863281 11.29296875 16.54296875 C11.3086792 15.55321045 11.32438965 14.56345215 11.34057617 13.54370117 C11.16875677 11.0157125 11.16875677 11.0157125 9.91918945 9.15356445 C7.37326264 7.39896948 7.37326264 7.39896948 1 8 C1 17.24 1 26.48 1 36 C2.32 36 3.64 36 5 36 C5 37.32 5 38.64 5 40 C-0.94 40 -6.88 40 -13 40 C-13 38.68 -13 37.36 -13 36 C-11.515 35.505 -11.515 35.505 -10 35 C-9.67 26.75 -9.34 18.5 -9 10 C-9.66 10 -10.32 10 -11 10 C-10.81640625 8.203125 -10.81640625 8.203125 -10 6 C-7.71484375 4.296875 -7.71484375 4.296875 -4.9375 2.75 C-3.55884766 1.96882813 -3.55884766 1.96882813 -2.15234375 1.171875 C-1.44207031 0.78515625 -0.73179687 0.3984375 0 0 Z " fill="#2767C9" transform="translate(2773,430)"/>
<path d="M0 0 C7.0163894 4.50672196 12.63743708 10.42402998 15.31640625 18.4609375 C15.38443592 20.18889102 15.4013627 21.91929115 15.37890625 23.6484375 C15.36988281 24.54949219 15.36085938 25.45054687 15.3515625 26.37890625 C15.33996094 27.06597656 15.32835938 27.75304687 15.31640625 28.4609375 C14.98640625 28.4609375 14.65640625 28.4609375 14.31640625 28.4609375 C14.17203125 27.4709375 14.02765625 26.4809375 13.87890625 25.4609375 C12.23843364 19.88333064 8.0224245 16.58470142 3.31640625 13.4609375 C-13.5111559 5.96286883 -34.49601611 6.12732155 -51.68359375 12.4609375 C-64.85293621 17.55824403 -77.19672249 24.9040253 -88.36328125 33.53125 C-92.58313931 36.75996702 -95.10148963 37.82955697 -100.49609375 37.4609375 C-103.9515742 36.98225623 -106.63851644 36.16447726 -109.68359375 34.4609375 C-84.21533479 15.13577618 -30.60643631 -17.55303625 0 0 Z " fill="#AD08A5" transform="translate(2969.68359375,199.5390625)"/>
<path d="M0 0 C5.02157861 1.9219397 6.48912484 5.2975075 8.63867188 9.91992188 C9.02603516 10.79197266 9.41339844 11.66402344 9.8125 12.5625 C10.42254883 13.87637695 10.42254883 13.87637695 11.04492188 15.21679688 C14 21.66830357 14 21.66830357 14 24 C16.32865865 21.88217825 17.63027617 20.01468622 18.8671875 17.12890625 C19.19589844 16.38962891 19.52460938 15.65035156 19.86328125 14.88867188 C20.5350927 13.34402431 21.2018078 11.79714971 21.86328125 10.24804688 C23.89670633 5.70251105 25.62287856 2.70662582 30 0 C34.15557275 -0.79574797 35.6010004 -0.26316929 39.15478516 2.08081055 C41.70723502 4.30814185 41.97701224 4.88480577 42.68115234 8.41333008 C42.64973145 9.68587646 42.61831055 10.95842285 42.5859375 12.26953125 C42.57744781 12.95053391 42.56895813 13.63153656 42.56021118 14.33317566 C42.52679302 16.49460485 42.45155986 18.6522119 42.375 20.8125 C42.34488432 22.28314898 42.31751129 23.75385684 42.29296875 25.22460938 C42.22704737 28.81763468 42.12361723 32.40844394 42 36 C39.03 36 36.06 36 33 36 C32.67 28.08 32.34 20.16 32 12 C28.87949339 18.72650257 28.87949339 18.72650257 25.77832031 25.46191406 C25.38225586 26.30463867 24.98619141 27.14736328 24.578125 28.015625 C24.18012695 28.87446289 23.78212891 29.73330078 23.37207031 30.61816406 C21.86208464 33.23941321 20.30182464 35.04206241 18 37 C15 37.5625 15 37.5625 12 37 C7.88363141 32.79858247 5.6882703 27.5821819 3.25 22.3125 C2.63318359 21.0121582 2.63318359 21.0121582 2.00390625 19.68554688 C-1 13.2735543 -1 13.2735543 -1 11 C-1.66 11 -2.32 11 -3 11 C-3 19.25 -3 27.5 -3 36 C-5.97 36 -8.94 36 -12 36 C-12.09922585 31.81915709 -12.17163374 27.63894629 -12.21972656 23.45727539 C-12.23978421 22.03625543 -12.26703778 20.61531741 -12.30175781 19.19458008 C-12.35054011 17.14644105 -12.37302539 15.09939725 -12.390625 13.05078125 C-12.41157227 11.82012939 -12.43251953 10.58947754 -12.45410156 9.3215332 C-11.91705347 5.3932863 -10.75963324 3.78753748 -8 1 C-5.17998673 -0.41000664 -3.12992745 -0.24548451 0 0 Z " fill="#AF08A4" transform="translate(2792,301)"/>
<path d="M0 0 C4.24722501 2.35771152 7.84990436 5.46881952 9.42578125 10.2265625 C10.42001962 15.75010902 10.49535351 21.36437578 8.6875 26.6875 C5.34039924 31.48501109 1.71990874 36.00118401 -4.1875 37.375 C-10.14320886 38.2110899 -14.46172444 37.51160685 -19.390625 33.97265625 C-23.49010888 30.32768036 -25.84077079 26.91212432 -26.59375 21.40234375 C-26.7616976 15.75510572 -26.65368802 11.03269015 -23.1875 6.375 C-16.34189421 -0.47060579 -9.52835283 -4.34911559 0 0 Z " fill="#4653C1" transform="translate(2844.1875,432.625)"/>
<path d="M0 0 C4.80373898 2.65718633 8.05016447 6.08799341 9.8125 11.375 C10.37911078 18.92617823 10.5122909 24.97352461 5.453125 30.9921875 C1.27124704 35.49740654 -2.31997079 37.39979257 -8.5 37.8125 C-14.61055242 37.63965576 -18.65361601 35.03803827 -22.796875 30.68359375 C-26.39080966 25.84793448 -26.94139604 21.21429332 -26.671875 15.27734375 C-25.46828268 8.0654962 -20.94333378 3.50418511 -15.1875 -0.625 C-9.81313291 -2.4164557 -5.11955434 -2.33676628 0 0 Z " fill="#0E7AD0" transform="translate(2751.1875,432.625)"/>
<path d="M0 0 C4.26873552 2.37709978 6.5897513 5.28206478 9 9.5 C10.79364346 16.22616296 10.50123644 22.46868538 7.01953125 28.55859375 C3.92871567 32.82867435 -0.10646813 35.96538451 -5.25 37.3125 C-10.88070621 37.75938145 -14.41957542 37.53278305 -19.25 34.3125 C-24.04129981 29.4548387 -26.57158118 25.50155851 -26.75 18.625 C-26.67026715 12.68183604 -25.90370563 9.26613922 -21.90625 4.86328125 C-15.26534107 -1.35473961 -8.65707085 -4.01299733 0 0 Z " fill="#7A2DB3" transform="translate(2926.25,432.6875)"/>
<path d="M0 0 C6.27 0 12.54 0 19 0 C19 1.65 19 3.3 19 5 C17.68 5 16.36 5 15 5 C15.33773437 5.80824219 15.67546875 6.61648438 16.0234375 7.44921875 C16.46945313 8.51785156 16.91546875 9.58648437 17.375 10.6875 C17.81585937 11.74324219 18.25671875 12.79898437 18.7109375 13.88671875 C19.82757462 16.58356657 20.92291801 19.28716264 22 22 C25.08467498 16.60540561 26.55643705 12.20988129 27 6 C25.68 5.67 24.36 5.34 23 5 C23 3.35 23 1.7 23 0 C29.27 0 35.54 0 42 0 C42 1.65 42 3.3 42 5 C41.01 5.33 40.02 5.66 39 6 C40.98 11.28 42.96 16.56 45 22 C47.54231246 16.3893794 49.89509981 10.78847551 52 5 C51.01 5 50.02 5 49 5 C49 3.35 49 1.7 49 0 C53.29 0 57.58 0 62 0 C61.67 1.65 61.34 3.3 61 5 C59.68 5.33 58.36 5.66 57 6 C56.88664307 6.68860107 56.77328613 7.37720215 56.65649414 8.08666992 C55.90388616 11.42652528 54.76019853 14.43122438 53.49609375 17.61328125 C53.13198143 18.53490303 53.13198143 18.53490303 52.76051331 19.47514343 C51.9901095 21.42251559 51.21390549 23.36751397 50.4375 25.3125 C49.91172353 26.63851895 49.38632887 27.96468936 48.86132812 29.29101562 C47.5786321 32.52910808 46.29072651 35.76509885 45 39 C42.63989258 38.77514648 42.63989258 38.77514648 40 38 C38.69799805 36.08227539 38.69799805 36.08227539 37.76171875 33.59765625 C37.24448242 32.26250977 37.24448242 32.26250977 36.71679688 30.90039062 C36.37712891 29.96388672 36.03746094 29.02738281 35.6875 28.0625 C35.32849609 27.12986328 34.96949219 26.19722656 34.59960938 25.23632812 C32 18.38821429 32 18.38821429 32 16 C31.34 16 30.68 16 30 16 C29.90847656 16.80695313 29.81695313 17.61390625 29.72265625 18.4453125 C28.82416854 22.86490071 27.20640092 26.74172657 25.4375 30.875 C25.10814453 31.65875 24.77878906 32.4425 24.43945312 33.25 C23.63203214 35.16908756 22.81680231 37.0848865 22 39 C19.69946289 38.94140625 19.69946289 38.94140625 17 38 C15.65261156 35.59086249 14.72287214 33.50807168 13.80859375 30.9375 C13.5366066 30.23101318 13.26461945 29.52452637 12.98439026 28.79663086 C12.11627246 26.53781893 11.27463087 24.27046227 10.4375 22 C9.59534291 19.73023415 8.74750714 17.46353639 7.87989807 15.20336914 C7.34031841 13.79686314 6.81549648 12.38458944 6.30699158 10.96655273 C5.52286802 8.80955707 5.52286802 8.80955707 4 6 C1.92896638 4.95239438 1.92896638 4.95239438 0 5 C0 3.35 0 1.7 0 0 Z " fill="#9520AE" transform="translate(2931,431)"/>
<path d="M0 0 C0.66 0.66 1.32 1.32 2 2 C4.89883083 2.24339551 4.89883083 2.24339551 8.125 2.125 C9.76855469 2.09792969 9.76855469 2.09792969 11.4453125 2.0703125 C12.28835937 2.04710937 13.13140625 2.02390625 14 2 C14.33 2.99 14.66 3.98 15 5 C18.3 3.35 21.6 1.7 25 0 C25.495 0.99 25.495 0.99 26 2 C29.96 2 33.92 2 38 2 C37 7 37 7 36 10 C30.555 9.505 30.555 9.505 25 9 C25 17.58 25 26.16 25 35 C26.32 35 27.64 35 29 35 C29 36.65 29 38.3 29 40 C22.73 40 16.46 40 10 40 C10.33 38.35 10.66 36.7 11 35 C12.32 35 13.64 35 15 35 C15 26.75 15 18.5 15 10 C8.07 9.505 8.07 9.505 1 9 C1 17.58 1 26.16 1 35 C2.32 35 3.64 35 5 35 C5 36.65 5 38.3 5 40 C-0.94 40 -6.88 40 -13 40 C-13 38.35 -13 36.7 -13 35 C-11.68 35 -10.36 35 -9 35 C-9 26.75 -9 18.5 -9 10 C-9.66 10 -10.32 10 -11 10 C-11 8.68 -11 7.36 -11 6 C-7.37 4.02 -3.74 2.04 0 0 Z " fill="#5847BD" transform="translate(2866,430)"/>
<path d="M0 0 C1.02787125 0.00212242 1.02787125 0.00212242 2.07650757 0.00428772 C4.26719511 0.0098895 6.4577808 0.02244219 8.6484375 0.03515625 C10.13281102 0.04017103 11.61718615 0.04473397 13.1015625 0.04882812 C16.74222065 0.05985948 20.38281914 0.07712526 24.0234375 0.09765625 C24.0234375 3.06765625 24.0234375 6.03765625 24.0234375 9.09765625 C10.6584375 9.59265625 10.6584375 9.59265625 -2.9765625 10.09765625 C-2.9765625 11.08765625 -2.9765625 12.07765625 -2.9765625 13.09765625 C-2.06946533 13.1116748 -2.06946533 13.1116748 -1.14404297 13.12597656 C1.6209163 13.17997347 4.38423656 13.26356019 7.1484375 13.34765625 C8.57542969 13.36892578 8.57542969 13.36892578 10.03125 13.390625 C15.96321119 13.59659587 19.50752948 14.14443325 24.0234375 18.09765625 C26.53594333 21.866415 26.55359836 23.62915759 26.0234375 28.09765625 C24.01013824 31.5744692 21.90807611 33.80277671 18.0234375 35.09765625 C15.66663537 35.18162782 13.30749669 35.20493812 10.94921875 35.1953125 C9.92346992 35.19319008 9.92346992 35.19319008 8.8769989 35.19102478 C6.69660028 35.18543501 4.51630499 35.17288447 2.3359375 35.16015625 C0.85612128 35.15513992 -0.62369656 35.15057725 -2.10351562 35.14648438 C-5.72789807 35.13546896 -9.3522202 35.11821137 -12.9765625 35.09765625 C-12.9765625 32.12765625 -12.9765625 29.15765625 -12.9765625 26.09765625 C-3.7365625 25.76765625 5.5034375 25.43765625 15.0234375 25.09765625 C15.0234375 24.10765625 15.0234375 23.11765625 15.0234375 22.09765625 C14.06304565 22.0836377 14.06304565 22.0836377 13.08325195 22.06933594 C10.16671375 22.01546778 7.25175125 21.93185426 4.3359375 21.84765625 C3.32853516 21.83347656 2.32113281 21.81929688 1.28320312 21.8046875 C-6.23330471 21.55661793 -6.23330471 21.55661793 -10.1015625 19.16796875 C-12.82991368 16.15541433 -13.80102372 14.25119679 -14.4140625 10.22265625 C-13.79900931 5.82941915 -12.05754605 4.25199656 -8.9765625 1.09765625 C-6.00296801 -0.389141 -3.31357071 -0.0134698 0 0 Z " fill="#AF07A4" transform="translate(3002.9765625,301.90234375)"/>
<path d="M0 0 C1.27746094 -0.03738281 2.55492188 -0.07476562 3.87109375 -0.11328125 C8.18296703 0.3840671 10.24629614 1.55960995 13.5625 4.3125 C15.86384672 8.53163565 16.70893776 11.56954361 16.5625 16.3125 C15.82314209 16.6842334 15.08378418 17.0559668 14.32202148 17.43896484 C0.55584495 24.38898318 -12.83396913 31.37120067 -25.4375 40.3125 C-26.4275 40.8075 -26.4275 40.8075 -27.4375 41.3125 C-25.51719071 34.47139815 -22.61290791 28.64771656 -19.04296875 22.54272461 C-16.96872349 18.97575357 -16.96872349 18.97575357 -16.625 14.96484375 C-18.58072179 10.98758262 -21.35929712 9.74538209 -25.4375 8.3125 C-18.17320208 1.9957192 -9.35196952 0.17894 0 0 Z " fill="#F9FCFE" transform="translate(2575.4375,473.6875)"/>
<path d="M0 0 C3.3 0 6.6 0 10 0 C10.33 8.25 10.66 16.5 11 25 C17.27 25 23.54 25 30 25 C30.33 16.75 30.66 8.5 31 0 C34.3 0 37.6 0 41 0 C41.08719631 4.56237931 41.14045922 9.12454386 41.1875 13.6875 C41.21263672 14.98107422 41.23777344 16.27464844 41.26367188 17.60742188 C41.27333984 18.85458984 41.28300781 20.10175781 41.29296875 21.38671875 C41.3086792 22.53358154 41.32438965 23.68044434 41.34057617 24.86206055 C40.95346999 28.42870981 40.25522685 30.22001632 38 33 C32.36100141 36.16265416 25.78022979 35.4077202 19.5 35.4375 C18.27667969 35.47037109 17.05335938 35.50324219 15.79296875 35.53710938 C5.78699828 35.59725455 5.78699828 35.59725455 2.71875 32.66015625 C0.06802777 28.55756116 -0.1201382 25.58943681 -0.09765625 20.80078125 C-0.09443359 19.59228516 -0.09121094 18.38378906 -0.08789062 17.13867188 C-0.07951172 15.87603516 -0.07113281 14.61339844 -0.0625 13.3125 C-0.05573242 11.40114258 -0.05573242 11.40114258 -0.04882812 9.45117188 C-0.03702873 6.30073436 -0.02056597 3.15039051 0 0 Z " fill="#B00CA6" transform="translate(2945,302)"/>
<path d="M0 0 C14.19 0 28.38 0 43 0 C43 3.96 43 7.92 43 12 C41.35 12 39.7 12 38 12 C37.505 9.03 37.505 9.03 37 6 C31.555 5.505 31.555 5.505 26 5 C26.33 19.19 26.66 33.38 27 48 C28.65 48.33 30.3 48.66 32 49 C32 50.65 32 52.3 32 54 C25.07 54 18.14 54 11 54 C11 52.35 11 50.7 11 49 C12.65 49 14.3 49 16 49 C16 34.48 16 19.96 16 5 C12.7 5.33 9.4 5.66 6 6 C5.67 7.65 5.34 9.3 5 11 C3.35 11 1.7 11 0 11 C0 7.37 0 3.74 0 0 Z " fill="#1082D3" transform="translate(2690,416)"/>
<path d="M0 0 C-5.56532721 6.24200472 -14.59107765 10.73440845 -22.96875 11.5546875 C-32.97339094 11.73769922 -42.28380218 10.65008593 -49.78515625 3.5546875 C-51 2 -51 2 -51.5625 -0.75 C-51 -3 -51 -3 -49 -5 C-32.80908858 -10.82872811 -15.4617161 -5.52204147 0 0 Z " fill="#AD07A4" transform="translate(2857,248)"/>
<path d="M0 0 C0.66 0.66 1.32 1.32 2 2 C4.89883083 2.24339551 4.89883083 2.24339551 8.125 2.125 C9.76855469 2.09792969 9.76855469 2.09792969 11.4453125 2.0703125 C12.28835937 2.04710937 13.13140625 2.02390625 14 2 C13.47731534 4.76276177 12.89130413 7.3260876 12 10 C6.555 9.505 6.555 9.505 1 9 C1 17.58 1 26.16 1 35 C2.32 35 3.64 35 5 35 C5 36.65 5 38.3 5 40 C-1.27 40 -7.54 40 -14 40 C-13.67 38.35 -13.34 36.7 -13 35 C-11.68 35 -10.36 35 -9 35 C-9.33 25.43 -9.66 15.86 -10 6 C-6.7 4.02 -3.4 2.04 0 0 Z " fill="#683EB9" transform="translate(2890,430)"/>
<path d="M0 0 C0.721875 0.103125 1.44375 0.20625 2.1875 0.3125 C1.85060585 7.6637032 -0.77815091 12.78655381 -4.375 19.125 C-4.91568115 20.0946167 -5.4563623 21.0642334 -6.01342773 22.06323242 C-16.45244228 40.52581409 -16.45244228 40.52581409 -21.8125 42.3125 C-22.8125 41.3125 -22.8125 41.3125 -22.9375 39.58984375 C-22.2700566 27.09613757 -15.57945624 14.85316019 -7.8125 5.3125 C-7.35875 4.74660156 -6.905 4.18070313 -6.4375 3.59765625 C-4.33592313 1.22681484 -3.19098808 0.35455423 0 0 Z " fill="#FBF7FC" transform="translate(2970.8125,529.6875)"/>
<path d="M0 0 C3.38904029 1.23989279 4.58402915 2.96979373 6.5625 5.9375 C8.56821549 11.95464646 8.4845467 18.69090033 6 24.5625 C4.20474876 27.66106531 3.64281374 27.90738235 0.0625 29.25 C-3.4375 28.9375 -3.4375 28.9375 -5.8125 26.625 C-8.33168842 22.45864992 -8.62532714 20.09915631 -8.6875 15.1875 C-8.71328125 13.97578125 -8.7390625 12.7640625 -8.765625 11.515625 C-8.40670476 7.60168522 -7.51307707 5.25454373 -5.4375 1.9375 C-2.4375 -0.0625 -2.4375 -0.0625 0 0 Z " fill="#FBF9FD" transform="translate(2918.4375,436.0625)"/>
<path d="M0 0 C4.27056454 5.05724749 4.55630085 9.61417571 4.328125 16.1171875 C3.88174493 20.03895528 2.99811573 22.59580283 1 26 C-2 28 -2 28 -4.9375 28.0625 C-8.37104136 26.87127136 -9.69920144 25.62431303 -11.3046875 22.359375 C-12.97064981 16.70633436 -13.1422095 10.22380625 -11.1640625 4.640625 C-8.20481977 -0.74386176 -5.8641695 -1.87653424 0 0 Z " fill="#F8FBFD" transform="translate(2747,437)"/>
<path d="M0 0 C2.82454679 1.43015027 4.76501774 2.76501774 7 5 C7.43805091 8.94245817 7.64475483 11.12497559 5.25 14.375 C0.06287683 18.12125563 -6.86505594 17.71165351 -13 17 C-16.10902068 15.72082728 -16.86485388 14.78755188 -19 12 C-19.75 8.5 -19.75 8.5 -19 5 C-14.23650436 -1.39669414 -7.4919443 -1.12519814 0 0 Z " fill="#FBF4FA" transform="translate(2867,311)"/>
<path d="M0 0 C3.86345353 0.05539001 6.19882712 0.7372694 9.25 3.25 C10.61328125 4.88671875 10.61328125 4.88671875 11.25 7.25 C10.14446534 9.97062842 9.01466665 12.29005977 7.5625 14.8125 C7.19705078 15.48474609 6.83160156 16.15699219 6.45507812 16.84960938 C4.68417139 20.03977589 3.09781657 22.89504941 0.25 25.25 C-3.31778551 25.63921297 -5.88162558 25.57564041 -9.25 24.3125 C-11.29854041 21.49575693 -10.96532152 19.28894909 -10.44140625 15.94140625 C-6.45673361 0.43044891 -6.45673361 0.43044891 0 0 Z " fill="#1F6BCB" transform="translate(2714.75,497.75)"/>
<path d="M0 0 C3.24982356 0.17104335 4.7364965 0.78041375 7.25 2.875 C11.23907471 7.71887643 10.43837688 14.04730344 10 20 C8.95654506 24.18821226 7.68377574 26.54414951 4 29 C1.625 29.625 1.625 29.625 -1 29 C-4.411118 25.83054159 -5.80986994 22.34893997 -6.453125 17.78515625 C-6.66183631 11.27783573 -6.47133711 6.86586685 -2 2 C-1.34 1.34 -0.68 0.68 0 0 Z " fill="#FBFBFD" transform="translate(2834,436)"/>
<path d="M0 0 C2.8379009 0.07132965 4.11977585 0.27694482 6.6875 1.625 C9.14908707 6.0353435 9.00432717 10.39733128 8.1875 15.3125 C6.85464276 18.23911419 5.77038858 19.17880943 3.1875 21.3125 C-0.59382023 22.68021157 -2.22948263 22.52970255 -6 21.125 C-9.83962929 18.65057223 -11.41958148 17.04134148 -12.4375 12.5625 C-11.2771007 6.52842365 -6.13285238 0.50269282 0 0 Z " fill="#AE04A3" transform="translate(3014.8125,569.6875)"/>
<path d="M0 0 C2.97 0 5.94 0 9 0 C9 11.55 9 23.1 9 35 C6.03 35 3.06 35 0 35 C0 23.45 0 11.9 0 0 Z " fill="#AD03A3" transform="translate(2931,302)"/>
<path d="M0 0 C0 0.66 0 1.32 0 2 C-21.98904625 11.45998377 -21.98904625 11.45998377 -32.5625 7.75 C-35 6 -35 6 -36 3.9375 C-36 2 -36 2 -34 0 C-23.48459007 -3.78554757 -10.64098408 -2.86488033 0 0 Z " fill="#F3F3FA" transform="translate(2842,243)"/>
<path d="M0 0 C3.13750535 2.8646788 4.77353053 4.79216282 5.5625 9 C4.83454557 12.88242364 3.54669899 14.98417224 1 18 C-2.0625 19.9375 -2.0625 19.9375 -5 21 C-5.99 20.67 -6.98 20.34 -8 20 C-8.33 18.35 -8.66 16.7 -9 15 C-8.0409375 14.5978125 -8.0409375 14.5978125 -7.0625 14.1875 C-4.66868314 13.11332248 -4.66868314 13.11332248 -4 10 C-6.475 9.01 -6.475 9.01 -9 8 C-9.22223194 5.25913944 -9.34781139 3.56036279 -7.875 1.1875 C-5.00664212 -0.62912666 -3.32683189 -0.59882974 0 0 Z " fill="#B00DA6" transform="translate(2997,460)"/>
<path d="M0 0 C3.15298961 0.24905968 4.66321573 0.69187822 7.01953125 2.84765625 C7.61121094 3.57855469 8.20289062 4.30945313 8.8125 5.0625 C9.41707031 5.79597656 10.02164063 6.52945312 10.64453125 7.28515625 C11.09183594 7.85105469 11.53914063 8.41695313 12 9 C12.33 6.36 12.66 3.72 13 1 C14.65 1 16.3 1 18 1 C18.05386629 3.12472576 18.09273071 5.24983652 18.125 7.375 C18.14820312 8.55835938 18.17140625 9.74171875 18.1953125 10.9609375 C18 14 18 14 16 16 C12.80568096 15.83793144 11.35440083 15.32423905 8.98046875 13.15234375 C8.38878906 12.42144531 7.79710938 11.69054687 7.1875 10.9375 C6.28064453 9.83728516 6.28064453 9.83728516 5.35546875 8.71484375 C4.90816406 8.14894531 4.46085937 7.58304687 4 7 C3.67 9.97 3.34 12.94 3 16 C1.68 16 0.36 16 -1 16 C-1.02685095 13.52076199 -1.04676547 11.0418116 -1.0625 8.5625 C-1.07506836 7.50192383 -1.07506836 7.50192383 -1.08789062 6.41992188 C-1.09653588 4.61306441 -1.05220011 2.80612397 -1 1 C-0.67 0.67 -0.34 0.34 0 0 Z " fill="#1C88D6" transform="translate(3012,353)"/>
<path d="M0 0 C2.3125 0.0625 2.3125 0.0625 5 1 C8.79135257 5.46041479 10.37989389 10.47691099 12 16 C10.35 16 8.7 16 7 16 C7 15.01 7 14.02 7 13 C5.5199159 13.11362262 4.04089926 13.24122908 2.5625 13.375 C1.73878906 13.44460938 0.91507813 13.51421875 0.06640625 13.5859375 C-0.61550781 13.72257812 -1.29742188 13.85921875 -2 14 C-2.33 14.66 -2.66 15.32 -3 16 C-4.65 16 -6.3 16 -8 16 C-6.49387553 10.66010414 -4.01822198 4.01822198 0 0 Z " fill="#1484D4" transform="translate(2996,353)"/>
<path d="M0 0 C2.58203125 0.9296875 2.58203125 0.9296875 4.3828125 3.546875 C4.88167969 4.62195313 5.38054688 5.69703125 5.89453125 6.8046875 C6.40628906 7.87460937 6.91804688 8.94453125 7.4453125 10.046875 C8.58203125 12.9296875 8.58203125 12.9296875 8.58203125 15.9296875 C7.26203125 15.9296875 5.94203125 15.9296875 4.58203125 15.9296875 C4.25203125 15.2696875 3.92203125 14.6096875 3.58203125 13.9296875 C1.45626343 13.46317543 1.45626343 13.46317543 -0.98046875 13.3046875 C-1.80675781 13.22992188 -2.63304688 13.15515625 -3.484375 13.078125 C-4.12246094 13.02914063 -4.76054687 12.98015625 -5.41796875 12.9296875 C-5.74796875 13.9196875 -6.07796875 14.9096875 -6.41796875 15.9296875 C-7.73796875 15.9296875 -9.05796875 15.9296875 -10.41796875 15.9296875 C-8.78663603 10.72330649 -7.15162795 5.68387741 -4.41796875 0.9296875 C-2.41796875 -0.0703125 -2.41796875 -0.0703125 0 0 Z " fill="#1283D4" transform="translate(2969.41796875,353.0703125)"/>
<path d="M0 0 C0 1.32 0 2.64 0 4 C-3.3 4.33 -6.6 4.66 -10 5 C-10.33 6.32 -10.66 7.64 -11 9 C-8.69 9.66 -6.38 10.32 -4 11 C-4 9.68 -4 8.36 -4 7 C-2.68 7 -1.36 7 0 7 C0 9.64 0 12.28 0 15 C-9.9975892 15.62054002 -9.9975892 15.62054002 -13.625 13.375 C-15.34835194 10.39830119 -16 8.45757668 -16 5 C-13.10156445 -2.01726501 -6.46244407 -0.4572484 0 0 Z " fill="#1484D4" transform="translate(2956,354)"/>
<path d="M0 0 C2 2 2 2 2.6875 5.5 C2.50328811 10.84214482 -0.4998736 13.90897924 -4.1015625 17.6015625 C-9.24352438 21.8565013 -14.87562847 24.44225783 -21 27 C-21.86367187 27.3609375 -22.72734375 27.721875 -23.6171875 28.09375 C-28.5556632 29.93927033 -32.74421073 30.28667941 -38 30 C-34.89532014 28.32655554 -31.80808581 27.27329369 -28.4375 26.25 C-22.16095405 24.20647341 -16.69984411 21.28116026 -11 18 C-10.25878906 17.64808594 -9.51757812 17.29617187 -8.75390625 16.93359375 C-6.40910181 15.68546845 -6.03569601 14.41662403 -5 12 C-4.505 11.236875 -4.01 10.47375 -3.5 9.6875 C-1.74955767 6.55129083 -0.88447109 3.46984812 0 0 Z " fill="#5D41B9" transform="translate(3026,216)"/>
<path d="M0 0 C2.31 0.33 4.62 0.66 7 1 C7 2.32 7 3.64 7 5 C6.01 5 5.02 5 4 5 C4.33 8.3 4.66 11.6 5 15 C5.66 15 6.32 15 7 15 C7 13.35 7 11.7 7 10 C8.32 10.33 9.64 10.66 11 11 C11 12.98 11 14.96 11 17 C5.921875 20.22265625 5.921875 20.22265625 4 21 C2.68 20.67 1.36 20.34 0 20 C0 13.4 0 6.8 0 0 Z " fill="#B81DA4" transform="translate(2911,351)"/>
<path d="M0 0 C4.62 2.31 9.24 4.62 14 7 C14 7.99 14 8.98 14 10 C7.25 14 7.25 14 5 14 C4.87625 13.071875 4.87625 13.071875 4.75 12.125 C4.18741541 9.81562433 4.18741541 9.81562433 1.9375 8.75 C1.298125 8.5025 0.65875 8.255 0 8 C0 9.65 0 11.3 0 13 C-0.99 13.33 -1.98 13.66 -3 14 C-3 10.37 -3 6.74 -3 3 C-2.01 3 -1.02 3 0 3 C0 2.01 0 1.02 0 0 Z " fill="#EDF5FB" transform="translate(2918,353)"/>
<path d="M0 0 C0.66 0 1.32 0 2 0 C1.68118885 8.4484956 -1.70523292 15.62678608 -7.625 21.6875 C-10 23 -10 23 -14 23 C-12.64673911 18.15752051 -10.48087419 14.41074848 -7.5625 10.375 C-7.16740234 9.81554687 -6.77230469 9.25609375 -6.36523438 8.6796875 C-5.25425039 7.11210944 -4.1275726 5.5556884 -3 4 C-2.45214844 3.20851563 -1.90429688 2.41703125 -1.33984375 1.6015625 C-0.89769531 1.07304688 -0.45554687 0.54453125 0 0 Z " fill="#EDF4FB" transform="translate(2645,527)"/>
<path d="M0 0 C1.49787267 3.86488134 0.4545188 6.1579288 -1.125 9.875 C-3.24888471 14.66690517 -5.09698816 18.4777698 -9 22 C-12.3125 22.875 -12.3125 22.875 -15 23 C-13.58564256 17.78205983 -11.22552808 14.08920608 -8.0625 9.8125 C-7.61970703 9.19697266 -7.17691406 8.58144531 -6.72070312 7.94726562 C-4.64263166 5.08875599 -2.53944977 2.45307081 0 0 Z " fill="#F6F2FA" transform="translate(2923,527)"/>
<path d="M0 0 C0.66 0.33 1.32 0.66 2 1 C-0.48979809 9.78752267 -3.12847617 17.75231745 -11 23 C-12.32 23 -13.64 23 -15 23 C-11.79100767 14.28538359 -6.20982635 6.81566306 0 0 Z " fill="#F1F1FA" transform="translate(2816,523)"/>
<path d="M0 0 C6.27 0 12.54 0 19 0 C19.33 1.32 19.66 2.64 20 4 C19 5 19 5 17.14233398 5.11352539 C16.35157471 5.10828857 15.56081543 5.10305176 14.74609375 5.09765625 C13.89208984 5.09443359 13.03808594 5.09121094 12.15820312 5.08789062 C11.26037109 5.07951172 10.36253906 5.07113281 9.4375 5.0625 C8.53580078 5.05798828 7.63410156 5.05347656 6.70507812 5.04882812 C4.46998686 5.03700225 2.23502563 5.0205222 0 5 C0 3.35 0 1.7 0 0 Z " fill="#FBF4FB" transform="translate(2897,311)"/>
<path d="M0 0 C5.94 0 11.88 0 18 0 C18.33 1.32 18.66 2.64 19 4 C18 5 18 5 16.23413086 5.11352539 C15.48526611 5.10828857 14.73640137 5.10305176 13.96484375 5.09765625 C13.15595703 5.09443359 12.34707031 5.09121094 11.51367188 5.08789062 C10.66353516 5.07951172 9.81339844 5.07113281 8.9375 5.0625 C8.08349609 5.05798828 7.22949219 5.05347656 6.34960938 5.04882812 C4.23304337 5.03700373 2.11651315 5.01906769 0 5 C0 3.35 0 1.7 0 0 Z " fill="#FEFDFE" transform="translate(2898,323)"/>
<path d="M0 0 C0.33 0 0.66 0 1 0 C1.33 2.31 1.66 4.62 2 7 C2.33 7 2.66 7 3 7 C3.09796875 7.65226562 3.1959375 8.30453125 3.296875 8.9765625 C4.26561293 14.63866868 5.61662052 18.26326873 9 23 C9 24.32 9 25.64 9 27 C7.68 27 6.36 27 5 27 C5 26.01 5 25.02 5 24 C4.360625 23.855625 3.72125 23.71125 3.0625 23.5625 C1 23 1 23 0 22 C-0.08700342 20.36527118 -0.10701063 18.72685945 -0.09765625 17.08984375 C-0.09443359 16.10048828 -0.09121094 15.11113281 -0.08789062 14.09179688 C-0.07951172 13.05087891 -0.07113281 12.00996094 -0.0625 10.9375 C-0.05798828 9.89271484 -0.05347656 8.84792969 -0.04882812 7.77148438 C-0.03699913 5.1809334 -0.02051689 2.59049441 0 0 Z " fill="#DDDEF3" transform="translate(2815,442)"/>
<path d="M0 0 C0.66 0 1.32 0 2 0 C2 0.66 2 1.32 2 2 C3.32 2.33 4.64 2.66 6 3 C6.33 4.32 6.66 5.64 7 7 C7 5.35 7 3.7 7 2 C7.66 2.33 8.32 2.66 9 3 C9 3.99 9 4.98 9 6 C9.66 6 10.32 6 11 6 C11.33 4.68 11.66 3.36 12 2 C13 4 13 4 12.3984375 5.91015625 C9.60781967 11.77897467 9.60781967 11.77897467 6.25 13 C5.5075 13 4.765 13 4 13 C4 12.01 4 11.02 4 10 C2.68 9.67 1.36 9.34 0 9 C0 6.03 0 3.06 0 0 Z " fill="#C4C4C4" transform="translate(2887,358)"/>
<path d="M0 0 C1.65 0 3.3 0 5 0 C5 4.95 5 9.9 5 15 C3.35 15 1.7 15 0 15 C0 10.05 0 5.1 0 0 Z " fill="#3093D9" transform="translate(2981,354)"/>
<path d="M0 0 C2.31 0.33 4.62 0.66 7 1 C7 2.32 7 3.64 7 5 C6.01 5 5.02 5 4 5 C4 8.63 4 12.26 4 16 C3.67 15.01 3.34 14.02 3 13 C2.01 13 1.02 13 0 13 C0 8.71 0 4.42 0 0 Z " fill="#D9517D" transform="translate(2911,351)"/>
<path d="M0 0 C3.96 1.98 7.92 3.96 12 6 C12 6.99 12 7.98 12 9 C6.25 12 6.25 12 4 12 C4.33 10.35 4.66 8.7 5 7 C4.175 6.5875 3.35 6.175 2.5 5.75 C1.675 5.1725 0.85 4.595 0 4 C0 2.68 0 1.36 0 0 Z " fill="#438ADF" transform="translate(2920,354)"/>
<path d="M0 0 C0.66 0.33 1.32 0.66 2 1 C1 4 1 4 -2.01953125 5.5703125 C-3.27921251 6.09972447 -4.54382097 6.61752839 -5.8125 7.125 C-6.44220703 7.38925781 -7.07191406 7.65351563 -7.72070312 7.92578125 C-12.37541397 9.85018426 -16.21943725 11.14634271 -21.25 11.0625 C-23.10625 11.0315625 -23.10625 11.0315625 -25 11 C-21.85914541 9.30647508 -18.7193993 8.23406384 -15.3125 7.1875 C-10.37708566 5.59270271 -6.13469023 3.59877174 -1.7421875 0.85546875 C-1.16726562 0.57316406 -0.59234375 0.29085937 0 0 Z " fill="#4251BE" transform="translate(3013,235)"/>
<path d="M0 0 C0.66 0.33 1.32 0.66 2 1 C2 1.99 2 2.98 2 4 C2.66 4 3.32 4 4 4 C4.33 2.68 4.66 1.36 5 0 C6 2 6 2 5.3984375 3.91015625 C2.60781967 9.77897467 2.60781967 9.77897467 -0.75 11 C-1.4925 11 -2.235 11 -3 11 C-3 10.01 -3 9.02 -3 8 C-2.505 7.54625 -2.01 7.0925 -1.5 6.625 C0.27889899 5.03775477 0.27889899 5.03775477 0.1875 2.3125 C0.125625 1.549375 0.06375 0.78625 0 0 Z " fill="#D0C9D0" transform="translate(2894,360)"/>
<path d="M0 0 C2.31 0.33 4.62 0.66 7 1 C7.33 2.32 7.66 3.64 8 5 C5.1875 5.625 5.1875 5.625 2 6 C1.01 5.34 0.02 4.68 -1 4 C-0.67 2.68 -0.34 1.36 0 0 Z " fill="#F1D5EF" transform="translate(923,583)"/>
<path d="M0 0 C-3.29752412 2.99053705 -5.45755587 3.36034353 -9.859375 3.29296875 C-10.97441406 3.28330078 -12.08945313 3.27363281 -13.23828125 3.26367188 C-14.97658203 3.2259668 -14.97658203 3.2259668 -16.75 3.1875 C-18.51150391 3.16719727 -18.51150391 3.16719727 -20.30859375 3.14648438 C-23.20619298 3.1111478 -26.10286427 3.06180979 -29 3 C-29 2.67 -29 2.34 -29 2 C-27.081875 1.92652344 -27.081875 1.92652344 -25.125 1.8515625 C-23.41664778 1.77647009 -21.70831541 1.70092513 -20 1.625 C-19.16082031 1.5940625 -18.32164062 1.563125 -17.45703125 1.53125 C-13.32241052 1.33894206 -9.50518896 0.97578263 -5.5 -0.1015625 C-2 -1 -2 -1 0 0 Z " fill="#40BCD8" transform="translate(2969,245)"/>
<path d="M0 0 C2.475 0.99 2.475 0.99 5 2 C2.75 4.5 2.75 4.5 0 7 C-1.32 7 -2.64 7 -4 7 C-2.92598892 4.08482708 -2.22189824 2.22189824 0 0 Z " fill="#F7EAF6" transform="translate(1388,635)"/>
<path d="M0 0 C1.4540625 0.0309375 1.4540625 0.0309375 2.9375 0.0625 C3.5975 1.3825 4.2575 2.7025 4.9375 4.0625 C2.9575 5.0525 2.9575 5.0525 0.9375 6.0625 C-0.7125 4.4125 -2.3625 2.7625 -4.0625 1.0625 C-3.0625 0.0625 -3.0625 0.0625 0 0 Z " fill="#E1A3DD" transform="translate(2649.0625,351.9375)"/>
<path d="M0 0 C2.31 0.33 4.62 0.66 7 1 C7 2.32 7 3.64 7 5 C4.69 5.33 2.38 5.66 0 6 C0 4.02 0 2.04 0 0 Z " fill="#1293B8" transform="translate(2911,351)"/>
<path d="M0 0 C0.99 0 1.98 0 3 0 C3.125 2.375 3.125 2.375 3 5 C2.34 5.66 1.68 6.32 1 7 C-1.125 6.625 -1.125 6.625 -3 6 C-2.42655063 3.13275314 -2.1385485 2.1385485 0 0 Z " fill="#DEA1DA" transform="translate(413,401)"/>
<path d="M0 0 C0.99 0 1.98 0 3 0 C2.75 2.875 2.75 2.875 2 6 C-0.0625 7.375 -0.0625 7.375 -2 8 C-2.125 5.125 -2.125 5.125 -2 2 C-1.34 1.34 -0.68 0.68 0 0 Z " fill="#DEA0DA" transform="translate(2031,272)"/>
<path d="M0 0 C0 1.32 0 2.64 0 4 C-2.31 3.67 -4.62 3.34 -7 3 C-7 2.34 -7 1.68 -7 1 C-4.53721199 -0.231394 -2.7204945 -0.07159196 0 0 Z " fill="#E1A3DD" transform="translate(1619,254)"/>
<path d="M0 0 C-3.13269705 3.13269705 -5.97328423 3.05494397 -10.25 3.0625 C-12.10625 3.0315625 -12.10625 3.0315625 -14 3 C-4.91666667 -1.89102564 -4.91666667 -1.89102564 0 0 Z " fill="#2E5DC4" transform="translate(3002,243)"/>
<path d="M0 0 C2.475 0.99 2.475 0.99 5 2 C5 2.99 5 3.98 5 5 C3.35 5.66 1.7 6.32 0 7 C0 4.69 0 2.38 0 0 Z " fill="#6066EA" transform="translate(2927,358)"/>
<path d="M0 0 C0 0.99 0 1.98 0 3 C-1.98 3 -3.96 3 -6 3 C-6.33 2.01 -6.66 1.02 -7 0 C-4.3333581 -1.33332095 -2.83319697 -0.67102033 0 0 Z " fill="#E6B9E3" transform="translate(1601,526)"/>
<path d="M0 0 C1.65 0.33 3.3 0.66 5 1 C4.67 2.32 4.34 3.64 4 5 C2.35 4.67 0.7 4.34 -1 4 C-0.67 2.68 -0.34 1.36 0 0 Z " fill="#E2ADDE" transform="translate(2179,345)"/>
<path d="M0 0 C1.32 0.33 2.64 0.66 4 1 C4 2.98 4 4.96 4 7 C2.68 6.34 1.36 5.68 0 5 C0 3.35 0 1.7 0 0 Z " fill="#8955F3" transform="translate(2918,361)"/>
<path d="M0 0 C0.99 0.33 1.98 0.66 3 1 C3.6875 3.0625 3.6875 3.0625 4 5 C2.02 5 0.04 5 -2 5 C-1.34 3.35 -0.68 1.7 0 0 Z " fill="#E1EFF9" transform="translate(2997,358)"/>
<path d="M0 0 C1.5 1.3125 1.5 1.3125 3 3 C3 3.99 3 4.98 3 6 C1.35 6 -0.3 6 -2 6 C-1.34 4.02 -0.68 2.04 0 0 Z " fill="#E2F0F9" transform="translate(2968,357)"/>
<path d="M0 0 C2.31 0 4.62 0 7 0 C7.33 0.66 7.66 1.32 8 2 C5.36 2.33 2.72 2.66 0 3 C0 2.01 0 1.02 0 0 Z " fill="#E1A4DE" transform="translate(1159,259)"/>
<path d="M0 0 C2.64 0 5.28 0 8 0 C7.01 1.485 7.01 1.485 6 3 C3.375 3.1875 3.375 3.1875 1 3 C0.67 2.01 0.34 1.02 0 0 Z " fill="#E9C0E6" transform="translate(1173,167)"/>
<path d="M0 0 C1.65 0 3.3 0 5 0 C5 0.99 5 1.98 5 3 C3.35 3.33 1.7 3.66 0 4 C0 2.68 0 1.36 0 0 Z " fill="#F3DCF2" transform="translate(2623,115)"/>
<path d="M0 0 C1.32 0 2.64 0 4 0 C4.33 0.99 4.66 1.98 5 3 C3.35 3.33 1.7 3.66 0 4 C0 2.68 0 1.36 0 0 Z " fill="#F0D3EE" transform="translate(1393,591)"/>
<path d="M0 0 C1.65 0 3.3 0 5 0 C5 1.32 5 2.64 5 4 C3.0625 3.6875 3.0625 3.6875 1 3 C0.67 2.01 0.34 1.02 0 0 Z " fill="#E2ABDE" transform="translate(2006,220)"/>
<path d="M0 0 C-2 2 -2 2 -5.125 2.125 C-6.548125 2.063125 -6.548125 2.063125 -8 2 C-8.33 1.34 -8.66 0.68 -9 0 C-5.52176885 -1.15941038 -3.54104422 -0.70820884 0 0 Z " fill="#FAEFF9" transform="translate(502,53)"/>
<path d="M0 0 C-0.75 1.9375 -0.75 1.9375 -2 4 C-4.125 4.75 -4.125 4.75 -6 5 C-6 4.01 -6 3.02 -6 2 C-2.25 0 -2.25 0 0 0 Z " fill="#F7E8F6" transform="translate(1790,632)"/>
<path d="M0 0 C-0.33 0.99 -0.66 1.98 -1 3 C-2.65 2.67 -4.3 2.34 -6 2 C-6 1.34 -6 0.68 -6 0 C-3.50907189 -1.24546405 -2.58919267 -0.7767578 0 0 Z " fill="#E3AFE0" transform="translate(893,514)"/>
<path d="M0 0 C-0.66 1.32 -1.32 2.64 -2 4 C-3.32 3.67 -4.64 3.34 -6 3 C-6 2.34 -6 1.68 -6 1 C-4 0 -4 0 0 0 Z " fill="#E1A4DE" transform="translate(1442,408)"/>
<path d="M0 0 C0.99 0 1.98 0 3 0 C3 0.99 3 1.98 3 3 C4.32 3.33 5.64 3.66 7 4 C4.69 4.33 2.38 4.66 0 5 C0 3.35 0 1.7 0 0 Z " fill="#BE1A91" transform="translate(2911,364)"/>
<path d="M0 0 C2.31 0.33 4.62 0.66 7 1 C7 1.66 7 2.32 7 3 C5.02 3 3.04 3 1 3 C0.67 2.01 0.34 1.02 0 0 Z " fill="#EBC8E9" transform="translate(1655,550)"/>
<path d="M0 0 C0.99 0.33 1.98 0.66 3 1 C2.01 2.32 1.02 3.64 0 5 C-0.99 4.67 -1.98 4.34 -3 4 C-3 3.34 -3 2.68 -3 2 C-2.01 1.34 -1.02 0.68 0 0 Z " fill="#DF9DDB" transform="translate(1691,231)"/>
<path d="M0 0 C0.33 1.32 0.66 2.64 1 4 C-0.32 4 -1.64 4 -3 4 C-3.33 3.01 -3.66 2.02 -4 1 C-2 0 -2 0 0 0 Z " fill="#F5E4F4" transform="translate(1947,87)"/>
<path d="M0 0 C1.32 0.33 2.64 0.66 4 1 C3.67 1.99 3.34 2.98 3 4 C1.35 3.67 -0.3 3.34 -2 3 C-1.34 2.01 -0.68 1.02 0 0 Z " fill="#FAF0F9" transform="translate(1851,61)"/>
</svg>
